# xmcd
#
# Track frame offsets: 
#        150
#        15407
#        38549
#        51059
#        66955
#        81591
#        95024
#        115296
#        126998
#        141543
#        151461
#        165035
#        178781
#        191404
#        205502
#        219151
#        235141
#        248485
#
# Disc length: 3580 seconds
#
# Revision: 0
# Processed by: cddbd v1.5.2PL0 Copyright (c) Steve Scherf et al.
# Submitted via: ExactAudioCopy v1.3
#
DISCID=ed0dfa12
DTITLE=Beth Kohnen and Rusty Zinn - Ease My Worried Mind
DYEAR=2011
DGENRE=Blues
TTITLE0=Ain't Easy
TTITLE1=Trouble In MInd
TTITLE2=Honest I Do
TTITLE3=Can't Hold Out
TTITLE4=Sad Hours
TTITLE5=Bad Break
TTITLE6=Evil Ways
TTITLE7=Raining In My Heart
TTITLE8=In The Mood
TTITLE9=Don't Get Around
TTITLE10=Bright Lights Big City
TTITLE11=Easy
TTITLE12=Walter's Jump
TTITLE13=Messin' Round With The Blues
TTITLE14=Hard Hearted Woman
TTITLE15=Red Quilt Blues
TTITLE16=Key To The Highway
TTITLE17=Mr Jelly Roll Baker
EXTD=
EXTT0=
EXTT1=
EXTT2=
EXTT3=
EXTT4=
EXTT5=
EXTT6=
EXTT7=
EXTT8=
EXTT9=
EXTT10=
EXTT11=
EXTT12=
EXTT13=
EXTT14=
EXTT15=
EXTT16=
EXTT17=
PLAYORDER=
